<svg xmlns="http://www.w3.org/2000/svg" viewBox="0 0 128 128" role="img" aria-label="DEAD STRIKE">
  <defs>
    <linearGradient id="slash" x1="0" y1="1" x2="1" y2="0">
      <stop offset="0%" stop-color="#61151a"/>
      <stop offset="100%" stop-color="#ffd166" stop-opacity="0.45"/>
    </linearGradient>
  </defs>
  <rect width="128" height="128" rx="26" fill="#0b0f17"/>
  <rect x="8" y="8" width="112" height="112" rx="24" fill="none" stroke="#ff5b2e" stroke-width="1.5"/>
  <path d="M88 6H114L69 122H43Z" fill="url(#slash)" opacity="0.7"/>
  <path d="M24 34h24c13 0 21 7 21 18 0 12-8 19-21 19H35v23H24Zm11 27h11c8 0 12-4 12-9 0-6-4-9-12-9H35Z" fill="#f3f4f6"/>
  <path d="M58 34h20c14 0 23 8 23 23 0 16-9 23-23 23H70v20H58Zm12 35h7c8 0 13-4 13-12 0-8-5-12-13-12H70Z" fill="#f3f4f6"/>
  <path d="M79 22 95 29 63 83 55 79Z" fill="#c71224"/>
  <circle cx="92" cy="30" r="5" fill="#9b0f18"/>
  <circle cx="101" cy="35" r="3.7" fill="#b2101b"/>
  <circle cx="90" cy="40" r="3.2" fill="#a50f19"/>
  <text x="24" y="108" fill="#ffd166" font-family="Arial, sans-serif" font-size="13" font-weight="700">DEAD STRIKE</text>
</svg>
